<svg id="Layer_1" data-name="Layer 1" xmlns="http://www.w3.org/2000/svg" viewBox="0 0 59.77 29.89"><defs><style>.cls-1{fill:#231f20;}.cls-2{fill:#fff;}</style></defs><title>VPA_Icon</title><rect class="cls-1" width="59.77" height="29.89"/><path class="cls-2" d="M9.8,13.15h2.82l4.43,14.48,4.43-14.48H24.3l-6,18.46H15.82Z" transform="translate(-5.11 -7.47)"/><path class="cls-2" d="M29,13.15h2.59V31.61H29ZM30.37,22h5.91a2.76,2.76,0,0,0,1.47-.39,2.68,2.68,0,0,0,1-1.12,3.68,3.68,0,0,0,.35-1.66,3.71,3.71,0,0,0-.35-1.68,2.62,2.62,0,0,0-1-1.12,2.68,2.68,0,0,0-1.47-.4H30.37V13.15h5.82a5.8,5.8,0,0,1,2.9.71,4.86,4.86,0,0,1,1.95,2,6.15,6.15,0,0,1,.69,3,6.13,6.13,0,0,1-.69,3,4.81,4.81,0,0,1-1.95,2,5.79,5.79,0,0,1-2.9.7H30.37Z" transform="translate(-5.11 -7.47)"/><path class="cls-2" d="M51.06,13.15h2.21l6.8,18.46H57.28L52.17,16.72,47.05,31.61H44.26Zm-3.67,12H57.1v2.46H47.39Z" transform="translate(-5.11 -7.47)"/></svg>