<svg id="Layer_1" data-name="Layer 1" xmlns="http://www.w3.org/2000/svg" viewBox="0 0 293.66 100.32"><defs><style>.cls-1,.cls-2{fill:#231f20;}.cls-1,.cls-4{opacity:0.5;}.cls-3{fill:#fff;}</style></defs><title>VPA_Full</title><path class="cls-1" d="M62.86,10.5h4.55l7.16,23.38L81.73,10.5h4.55L76.56,40.32h-4Z" transform="translate(-4.62 -10.31)"/><path class="cls-1" d="M96.68,39.33a8.56,8.56,0,0,1-3.58-3.8,13.43,13.43,0,0,1-1.23-6v-19h4.18V29.68a7.19,7.19,0,0,0,1.64,5,6.93,6.93,0,0,0,9.3,0,7.15,7.15,0,0,0,1.65-5V10.5h4.19v19a13.43,13.43,0,0,1-1.23,6,8.58,8.58,0,0,1-3.59,3.8,11.71,11.71,0,0,1-5.68,1.3A11.56,11.56,0,0,1,96.68,39.33Z" transform="translate(-4.62 -10.31)"/><path class="cls-1" d="M121.49,10.5h4.18V40.32h-4.18Zm2.09,25.84h17.06v4H123.58Z" transform="translate(-4.62 -10.31)"/><path class="cls-1" d="M147.66,10.5h4.19V40.32h-4.19ZM151,27.24,164.11,10.5h5.15l-18.93,23Zm5-2.83,3.3-3.06,11.3,19h-5.13Z" transform="translate(-4.62 -10.31)"/><path class="cls-1" d="M184.83,10.5h3.57l11,29.82h-4.51l-8.26-24.06-8.27,24.06h-4.51Zm-5.92,19.3H194.6v4H178.91Z" transform="translate(-4.62 -10.31)"/><path class="cls-1" d="M206,10.5h3.79l14.58,23-.49.54V10.5H228V40.3H224.2L209.66,17.6l.49-.54V40.3H206Z" transform="translate(-4.62 -10.31)"/><path class="cls-2" d="M42.42,45.5H46.6V75.32H42.42Zm2.15,14.28h9.54a4.48,4.48,0,0,0,2.38-.64,4.26,4.26,0,0,0,1.59-1.81,6.14,6.14,0,0,0,.56-2.68,6.25,6.25,0,0,0-.56-2.71,4.32,4.32,0,0,0-1.59-1.81,4.4,4.4,0,0,0-2.38-.65H44.57v-4H54a9.43,9.43,0,0,1,4.7,1.14,8,8,0,0,1,3.15,3.21,10.82,10.82,0,0,1,0,9.59,8,8,0,0,1-3.15,3.19A9.53,9.53,0,0,1,54,63.75H44.57Z" transform="translate(-4.62 -10.31)"/><path class="cls-2" d="M74.44,75.32H70.26V45.5h4.18Z" transform="translate(-4.62 -10.31)"/><path class="cls-2" d="M83.92,45.5h4.19V75.32H83.92Zm2.16,14.28h9.53A4.46,4.46,0,0,0,98,59.14a4.26,4.26,0,0,0,1.59-1.81,6,6,0,0,0,.56-2.68,6.11,6.11,0,0,0-.56-2.71A4.32,4.32,0,0,0,98,50.13a4.38,4.38,0,0,0-2.38-.65H86.08v-4h9.39a9.39,9.39,0,0,1,4.69,1.14,7.85,7.85,0,0,1,3.15,3.21,10.82,10.82,0,0,1,0,9.59,7.87,7.87,0,0,1-3.15,3.19,9.49,9.49,0,0,1-4.69,1.12H86.08Z" transform="translate(-4.62 -10.31)"/><path class="cls-2" d="M111.76,45.5h4.18V75.32h-4.18Zm2,0h17.12v4H113.79Zm0,13h14.87v4H113.79Zm0,12.82h17.12v4H113.79Z" transform="translate(-4.62 -10.31)"/><path class="cls-2" d="M139,45.5h4.18V75.32H139Zm2.09,25.84h17.07v4H141.05Z" transform="translate(-4.62 -10.31)"/><path class="cls-2" d="M169.32,75.32h-4.18V45.5h4.18Z" transform="translate(-4.62 -10.31)"/><path class="cls-2" d="M178.8,45.5h3.8l14.58,23-.49.54V45.5h4.14V75.3H197L182.45,52.6l.5-.54V75.3H178.8Z" transform="translate(-4.62 -10.31)"/><path class="cls-2" d="M210.31,45.5h4.19V75.32h-4.19Zm2,0h17.13v4H212.34Zm0,13h14.87v4H212.34Zm0,12.82h17.13v4H212.34Z" transform="translate(-4.62 -10.31)"/><path class="cls-2" d="M15.61,80.5h3.57l11,29.82H25.66L17.39,86.26,9.13,110.32H4.62ZM9.68,99.8H25.37v4H9.68Z" transform="translate(-4.62 -10.31)"/><path class="cls-2" d="M40,110.22a16.08,16.08,0,0,1-3.6-1.23,15.48,15.48,0,0,1-3.13-2l2.61-3.2A11.71,11.71,0,0,0,39.65,106a13.11,13.11,0,0,0,4.45.74,9,9,0,0,0,5-1.2,3.87,3.87,0,0,0,1.78-3.39v0a3.57,3.57,0,0,0-.81-2.47A4.91,4.91,0,0,0,48,98.25a24.69,24.69,0,0,0-3.31-.81l-.14,0-.13,0-.31-.06a32,32,0,0,1-4.87-1.16A6.88,6.88,0,0,1,36,93.82,7.76,7.76,0,0,1,34.71,89v0A8.64,8.64,0,0,1,36,84.2a7.79,7.79,0,0,1,3.62-3,15.62,15.62,0,0,1,8.87-.68,15.92,15.92,0,0,1,3.05,1,17.34,17.34,0,0,1,3,1.73l-2.38,3.32a13.86,13.86,0,0,0-3.4-1.87,9.59,9.59,0,0,0-3.39-.63,8,8,0,0,0-4.75,1.22,4,4,0,0,0-1.69,3.46v0a3.31,3.31,0,0,0,.87,2.42,5.25,5.25,0,0,0,2.18,1.3,32,32,0,0,0,3.62.87.4.4,0,0,0,.15,0l.15,0,.23,0,.22,0a23.74,23.74,0,0,1,4.53,1.31,7,7,0,0,1,3,2.45A7.72,7.72,0,0,1,55.05,102v0a8.23,8.23,0,0,1-1.29,4.67,8,8,0,0,1-3.74,3,15.42,15.42,0,0,1-5.92,1A19.87,19.87,0,0,1,40,110.22Z" transform="translate(-4.62 -10.31)"/><path class="cls-2" d="M67.16,110.22a16.08,16.08,0,0,1-3.6-1.23,15.48,15.48,0,0,1-3.13-2l2.61-3.2A11.71,11.71,0,0,0,66.79,106a13.11,13.11,0,0,0,4.45.74,9,9,0,0,0,5-1.2,3.87,3.87,0,0,0,1.78-3.39v0a3.57,3.57,0,0,0-.81-2.47,4.91,4.91,0,0,0-2.09-1.36,24.69,24.69,0,0,0-3.31-.81l-.14,0-.13,0-.31-.06a32,32,0,0,1-4.87-1.16,6.88,6.88,0,0,1-3.21-2.36A7.76,7.76,0,0,1,61.85,89v0a8.64,8.64,0,0,1,1.24-4.73,7.79,7.79,0,0,1,3.62-3,15.62,15.62,0,0,1,8.87-.68,15.92,15.92,0,0,1,3,1,17.34,17.34,0,0,1,3,1.73l-2.38,3.32a13.86,13.86,0,0,0-3.4-1.87,9.59,9.59,0,0,0-3.39-.63,8,8,0,0,0-4.75,1.22A4,4,0,0,0,66,88.81v0a3.31,3.31,0,0,0,.87,2.42A5.25,5.25,0,0,0,69,92.55a32,32,0,0,0,3.62.87.4.4,0,0,0,.15,0l.15,0,.23,0,.22,0a23.74,23.74,0,0,1,4.53,1.31,7,7,0,0,1,3,2.45A7.72,7.72,0,0,1,82.19,102v0a8.23,8.23,0,0,1-1.29,4.67,8,8,0,0,1-3.74,3,15.42,15.42,0,0,1-5.92,1A19.87,19.87,0,0,1,67.16,110.22Z" transform="translate(-4.62 -10.31)"/><path class="cls-2" d="M94,110.32H89.83V80.5H94Z" transform="translate(-4.62 -10.31)"/><path class="cls-2" d="M108.38,110.22a15.91,15.91,0,0,1-3.6-1.23,15.21,15.21,0,0,1-3.13-2l2.6-3.2A11.86,11.86,0,0,0,108,106a13.07,13.07,0,0,0,4.45.74,8.93,8.93,0,0,0,5-1.2,3.86,3.86,0,0,0,1.79-3.39v0a3.57,3.57,0,0,0-.81-2.47,4.88,4.88,0,0,0-2.1-1.36,23.93,23.93,0,0,0-3.31-.81l-.13,0-.13,0-.31-.06a31.66,31.66,0,0,1-4.87-1.16,6.88,6.88,0,0,1-3.21-2.36A7.76,7.76,0,0,1,103.06,89v0a8.64,8.64,0,0,1,1.25-4.73,7.74,7.74,0,0,1,3.62-3,15.58,15.58,0,0,1,8.86-.68,15.78,15.78,0,0,1,3.06,1,17.27,17.27,0,0,1,3,1.73l-2.38,3.32A13.63,13.63,0,0,0,117,84.76a9.67,9.67,0,0,0-3.39-.63,8,8,0,0,0-4.75,1.22,4,4,0,0,0-1.69,3.46v0a3.31,3.31,0,0,0,.87,2.42,5.21,5.21,0,0,0,2.17,1.3,33.13,33.13,0,0,0,3.62.87l.16,0,.15,0,.23,0,.22,0a23.62,23.62,0,0,1,4.52,1.31,7,7,0,0,1,3,2.45,7.79,7.79,0,0,1,1.22,4.62v0a8.23,8.23,0,0,1-1.29,4.67,8,8,0,0,1-3.75,3,15.33,15.33,0,0,1-5.91,1A19.73,19.73,0,0,1,108.38,110.22Z" transform="translate(-4.62 -10.31)"/><path class="cls-2" d="M127.35,80.5H148.4v4H127.35Zm8.43,2.44H140v27.38h-4.19Z" transform="translate(-4.62 -10.31)"/><path class="cls-2" d="M160.87,80.5h3.57l11,29.82h-4.51l-8.26-24.06-8.27,24.06h-4.51ZM155,99.8h15.68v4H155Z" transform="translate(-4.62 -10.31)"/><path class="cls-2" d="M182,80.5h3.8l14.58,23-.49.54V80.5h4.14v29.8h-3.83L185.7,87.6l.49-.54V110.3H182Z" transform="translate(-4.62 -10.31)"/><path class="cls-2" d="M211.09,80.5h21v4h-21Zm8.43,2.44h4.18v27.38h-4.18Z" transform="translate(-4.62 -10.31)"/><rect class="cls-2" x="233.89" y="35.13" width="59.77" height="29.89"/><path class="cls-3" d="M243.19,51.2H246l4.43,14.48,4.43-14.48h2.81l-6,18.46H249.2Z" transform="translate(-4.62 -10.31)"/><path class="cls-3" d="M262.43,51.2H265V69.66h-2.59ZM263.76,60h5.9a2.8,2.8,0,0,0,1.48-.39,2.68,2.68,0,0,0,1-1.12,4.16,4.16,0,0,0,0-3.34,2.62,2.62,0,0,0-1-1.12,2.71,2.71,0,0,0-1.48-.4h-5.9V51.2h5.82a5.82,5.82,0,0,1,2.9.71,4.89,4.89,0,0,1,1.95,2,6.74,6.74,0,0,1,0,5.94,4.81,4.81,0,0,1-1.95,2,5.82,5.82,0,0,1-2.9.7h-5.82Z" transform="translate(-4.62 -10.31)"/><path class="cls-3" d="M284.45,51.2h2.21l6.8,18.46h-2.79l-5.12-14.89-5.11,14.89h-2.8Zm-3.67,11.95h9.71v2.46h-9.71Z" transform="translate(-4.62 -10.31)"/><g class="cls-4"><path class="cls-2" d="M295.27,13.31V37.19H241.5V13.31h53.77m3-3H238.5V40.19h59.77V10.31Z" transform="translate(-4.62 -10.31)"/></g><path class="cls-2" d="M294.5,83.44v23.88h-53V83.44h53m3-3h-59v29.88h59V80.44Z" transform="translate(-4.62 -10.31)"/></svg>