<svg id="Layer_1" data-name="Layer 1" xmlns="http://www.w3.org/2000/svg" viewBox="0 0 276.6075 65.12598"><defs><style>.cls-1,.cls-2{fill:#231f20;}.cls-1,.cls-5,.cls-6{opacity:0.5;}.cls-3,.cls-4,.cls-5,.cls-6{fill:none;stroke:#231f20;stroke-width:11.91126px;}.cls-3,.cls-5{stroke-linejoin:round;}.cls-4,.cls-6{stroke-miterlimit:10;}</style></defs><title>UE_Full</title><path class="cls-1" d="M13.50562,33.30469A8.548,8.548,0,0,1,9.927,29.50977a13.42547,13.42547,0,0,1-1.23047-5.998V4.48047h4.18359v19.1748a7.18277,7.18277,0,0,0,1.64063,5.04493,5.98081,5.98081,0,0,0,4.63476,1.78418,6.04051,6.04051,0,0,0,4.66553-1.78418,7.15436,7.15436,0,0,0,1.65088-5.04493V4.48047h4.18359V23.51172a13.42561,13.42561,0,0,1-1.23047,5.998,8.53284,8.53284,0,0,1-3.58887,3.79492,11.59,11.59,0,0,1-5.68066,1.30176A11.48532,11.48532,0,0,1,13.50562,33.30469Z" transform="translate(-8.69654 -4.48047)"/><path class="cls-1" d="M38.31812,4.48047h3.79394L56.69312,27.53125l-.49219.5332V4.48047h4.14258V34.27832h-3.835l-14.54-22.70215.49219-.5332V34.27832H38.31812Z" transform="translate(-8.69654 -4.48047)"/><path class="cls-1" d="M67.36548,4.48047h21.041V8.459h-21.041ZM75.79419,6.9209h4.1836V34.29883h-4.1836Z" transform="translate(-8.69654 -4.48047)"/><path class="cls-1" d="M98.79126,34.29883H94.60767V4.48047h4.18359Z" transform="translate(-8.69654 -4.48047)"/><path class="cls-1" d="M105.81324,4.48047h21.041V8.459h-21.041ZM114.242,6.9209h4.18359V34.29883H114.242Z" transform="translate(-8.69654 -4.48047)"/><path class="cls-1" d="M133.05591,4.48047h4.1836V34.29883h-4.1836Zm2.0918,25.83984h17.0625v3.97852h-17.0625Z" transform="translate(-8.69654 -4.48047)"/><path class="cls-1" d="M159.23218,4.48047h4.18359V34.29883h-4.18359Zm2.03027,0h17.124V8.459h-17.124Zm0,13.02246h14.86817v3.97852H161.26245Zm0,12.81738h17.124v3.97852h-17.124Z" transform="translate(-8.69654 -4.48047)"/><path class="cls-1" d="M186.43384,4.48047h4.18359V34.29883h-4.18359Zm2.83008,25.83984H196.011a7.162,7.162,0,0,0,5.1167-1.71289,6.31649,6.31649,0,0,0,1.81494-4.8291V15.001a6.318,6.318,0,0,0-1.81494-4.8291A7.16634,7.16634,0,0,0,196.011,8.459h-6.74707V4.48047h6.624a13.77638,13.77638,0,0,1,6.13184,1.251,8.71768,8.71768,0,0,1,3.876,3.65039,11.74132,11.74132,0,0,1,1.333,5.7832v8.44922a11.74132,11.74132,0,0,1-1.333,5.7832,8.70711,8.70711,0,0,1-3.88624,3.65039,13.84306,13.84306,0,0,1-6.14209,1.251h-6.60351Z" transform="translate(-8.69654 -4.48047)"/><path class="cls-2" d="M44.55249,39.48047h4.1836V69.29883h-4.1836Zm2.03028,0h17.124V43.459h-17.124Zm0,13.02246H61.45093v3.97852H46.58277Zm0,12.81738h17.124v3.97852h-17.124Z" transform="translate(-8.69654 -4.48047)"/><path class="cls-2" d="M71.75415,39.48047h3.794l14.581,23.05078-.49218.5332v-23.584h4.14257V69.27832h-3.835l-14.54-22.70215.49219-.5332V69.27832H71.75415Z" transform="translate(-8.69654 -4.48047)"/><path class="cls-2" d="M123.64722,53.24121v5.209a12.70782,12.70782,0,0,1-1.292,5.85449,9.3475,9.3475,0,0,1-3.66065,3.918,10.68111,10.68111,0,0,1-5.48584,1.38379,11.4096,11.4096,0,0,1-5.54736-1.30176,9.141,9.141,0,0,1-3.70166-3.68164,11.235,11.235,0,0,1-1.3125-5.5166V50.30859a12.64946,12.64946,0,0,1,1.292-5.84472,9.36586,9.36586,0,0,1,3.66065-3.90723,10.68111,10.68111,0,0,1,5.48584-1.38379,10.31238,10.31238,0,0,1,4.727,1.09668,10.01968,10.01968,0,0,1,3.61963,3.10742,11.57556,11.57556,0,0,1,1.96875,4.65528H118.8689a6.4169,6.4169,0,0,0-1.251-2.57325,5.94959,5.94959,0,0,0-2.07129-1.64062,5.6818,5.6818,0,0,0-2.46093-.56445,5.93262,5.93262,0,0,0-3.24024.88183,5.80741,5.80741,0,0,0-2.15332,2.47168,8.50043,8.50043,0,0,0-.75879,3.70117v8.79786a7.00843,7.00843,0,0,0,.7793,3.374,5.53908,5.53908,0,0,0,2.20459,2.24512,6.61183,6.61183,0,0,0,3.2915.7998,6.22019,6.22019,0,0,0,3.24024-.83008,5.49347,5.49347,0,0,0,2.15332-2.41015,8.58881,8.58881,0,0,0,.75879-3.75293v-1.292h-6.04981v-3.999Z" transform="translate(-8.69654 -4.48047)"/><path class="cls-2" d="M136.28784,69.29883h-4.18359V39.48047h4.18359Z" transform="translate(-8.69654 -4.48047)"/><path class="cls-2" d="M145.77076,39.48047h3.79394l14.58106,23.05078-.49219.5332v-23.584h4.14258V69.27832h-3.835l-14.54-22.70215.49218-.5332V69.27832h-4.14257Z" transform="translate(-8.69654 -4.48047)"/><path class="cls-2" d="M177.27906,39.48047h4.18359V69.29883h-4.18359Zm2.03027,0h17.124V43.459h-17.124Zm0,13.02246h14.86816v3.97852H179.30933Zm0,12.81738h17.124v3.97852h-17.124Z" transform="translate(-8.69654 -4.48047)"/><path class="cls-2" d="M203.35279,64.91016h4.38867v4.38867h-4.38867Z" transform="translate(-8.69654 -4.48047)"/><path class="cls-3" d="M255.52589,61.28481a23.82252,23.82252,0,1,1,0-47.645" transform="translate(-8.69654 -4.48047)"/><path class="cls-4" d="M255.52589,13.63977a17.86689,17.86689,0,1,1,0,35.73378" transform="translate(-8.69654 -4.48047)"/><path class="cls-5" d="M255.52589,13.63977a23.82252,23.82252,0,0,1,0,47.645" transform="translate(-8.69654 -4.48047)"/><path class="cls-6" d="M255.52589,49.37355a17.86689,17.86689,0,0,1,0-35.73378" transform="translate(-8.69654 -4.48047)"/></svg>