<svg id="Layer_1" data-name="Layer 1" xmlns="http://www.w3.org/2000/svg" viewBox="0 0 268.16 65.13"><defs><style>.cls-1,.cls-2{fill:#fff;}.cls-2,.cls-3,.cls-4,.cls-5{opacity:0.5;}.cls-3{fill:#e99f3a;}.cls-4{fill:#fec240;}.cls-5{fill:#e86c38;}</style></defs><title>UG_Full</title><path class="cls-1" d="M14.05,39.33a8.56,8.56,0,0,1-3.58-3.8,13.43,13.43,0,0,1-1.23-6v-19h4.18V29.68a7.19,7.19,0,0,0,1.64,5,6,6,0,0,0,4.64,1.79,6.07,6.07,0,0,0,4.67-1.79,7.15,7.15,0,0,0,1.65-5V10.5H30.2v19a13.43,13.43,0,0,1-1.23,6,8.58,8.58,0,0,1-3.59,3.8,11.68,11.68,0,0,1-5.68,1.3A11.59,11.59,0,0,1,14.05,39.33Z" transform="translate(-9.24 -10.5)"/><path class="cls-1" d="M38.86,10.5h3.8l14.58,23-.49.54V10.5h4.14V40.3H57.05L42.51,17.6l.49-.54V40.3H38.86Z" transform="translate(-9.24 -10.5)"/><path class="cls-1" d="M67.91,10.5H89v4h-21Zm8.43,2.44h4.18V40.32H76.34Z" transform="translate(-9.24 -10.5)"/><path class="cls-1" d="M99.34,40.32H95.15V10.5h4.19Z" transform="translate(-9.24 -10.5)"/><path class="cls-1" d="M106.36,10.5h21v4h-21Zm8.43,2.44H119V40.32h-4.18Z" transform="translate(-9.24 -10.5)"/><path class="cls-1" d="M133.6,10.5h4.18V40.32H133.6Zm2.09,25.84h17.06v4H135.69Z" transform="translate(-9.24 -10.5)"/><path class="cls-1" d="M159.78,10.5H164V40.32h-4.18Zm2,0h17.12v4H161.81Zm0,13h14.86v4H161.81Zm0,12.82h17.12v4H161.81Z" transform="translate(-9.24 -10.5)"/><path class="cls-1" d="M187,10.5h4.18V40.32H187Zm2.83,25.84h6.75a7.16,7.16,0,0,0,5.11-1.71,6.32,6.32,0,0,0,1.82-4.83V21a6.32,6.32,0,0,0-1.82-4.83,7.16,7.16,0,0,0-5.11-1.71h-6.75v-4h6.62a13.81,13.81,0,0,1,6.13,1.25,8.74,8.74,0,0,1,3.88,3.65,11.74,11.74,0,0,1,1.33,5.79v8.45a11.73,11.73,0,0,1-1.33,5.78,8.66,8.66,0,0,1-3.89,3.65,13.89,13.89,0,0,1-6.14,1.25h-6.6Z" transform="translate(-9.24 -10.5)"/><path class="cls-2" d="M79.33,59.26v5.21A12.74,12.74,0,0,1,78,70.33a9.29,9.29,0,0,1-3.66,3.91,10.62,10.62,0,0,1-5.49,1.39,11.48,11.48,0,0,1-5.54-1.3,9.07,9.07,0,0,1-3.7-3.69,11.15,11.15,0,0,1-1.32-5.51v-8.8a12.66,12.66,0,0,1,1.29-5.84,9.37,9.37,0,0,1,3.67-3.91,10.65,10.65,0,0,1,5.48-1.39,10.32,10.32,0,0,1,4.73,1.1,10,10,0,0,1,3.62,3.11,11.7,11.7,0,0,1,2,4.65H74.55a6.37,6.37,0,0,0-1.25-2.57,5.93,5.93,0,0,0-2.07-1.64,5.6,5.6,0,0,0-2.46-.56,5.91,5.91,0,0,0-3.24.88,5.76,5.76,0,0,0-2.15,2.47,8.43,8.43,0,0,0-.76,3.7v8.8a7,7,0,0,0,.78,3.37,5.6,5.6,0,0,0,2.2,2.25,6.65,6.65,0,0,0,3.29.8,6.25,6.25,0,0,0,3.24-.83,5.57,5.57,0,0,0,2.16-2.41,8.73,8.73,0,0,0,.76-3.76V63.26H69v-4Z" transform="translate(-9.24 -10.5)"/><path class="cls-2" d="M95.09,45.5h3.57l11,29.82h-4.51L96.88,51.26,88.61,75.32H84.1ZM89.16,64.8h15.69v4H89.16Z" transform="translate(-9.24 -10.5)"/><path class="cls-2" d="M137.69,45.5h3.92V75.32h-4.08V53l.2,1.31-7.34,16.88h-2.91l-7.34-16.47.2-1.72V75.32h-4.08V45.5h3.92l8.76,19.69Z" transform="translate(-9.24 -10.5)"/><path class="cls-2" d="M151.09,45.5h4.19V75.32h-4.19Zm2,0h17.13v4H153.12Zm0,13H168v4H153.12Zm0,12.82h17.13v4H153.12Z" transform="translate(-9.24 -10.5)"/><path class="cls-2" d="M183.18,75.22a15.91,15.91,0,0,1-3.6-1.23,15.21,15.21,0,0,1-3.13-2l2.6-3.2A11.86,11.86,0,0,0,182.81,71a13.07,13.07,0,0,0,4.45.74,8.93,8.93,0,0,0,5-1.2,3.86,3.86,0,0,0,1.79-3.39v0a3.57,3.57,0,0,0-.81-2.47,4.88,4.88,0,0,0-2.1-1.36,23.93,23.93,0,0,0-3.31-.81l-.13,0-.14,0-.3-.06a31.66,31.66,0,0,1-4.87-1.16,6.88,6.88,0,0,1-3.21-2.36A7.76,7.76,0,0,1,177.86,54v0a8.72,8.72,0,0,1,1.24-4.73,7.84,7.84,0,0,1,3.62-3,15.61,15.61,0,0,1,8.87-.68,15.78,15.78,0,0,1,3.06,1,17.66,17.66,0,0,1,3,1.73l-2.38,3.32a13.63,13.63,0,0,0-3.39-1.87,9.67,9.67,0,0,0-3.39-.63,8,8,0,0,0-4.75,1.22A4,4,0,0,0,182,53.81v0a3.31,3.31,0,0,0,.87,2.42,5.21,5.21,0,0,0,2.17,1.3,33.13,33.13,0,0,0,3.62.87l.16,0,.15,0,.23,0,.22,0A23.62,23.62,0,0,1,194,59.88a7,7,0,0,1,3,2.45A7.79,7.79,0,0,1,198.21,67v0a8.23,8.23,0,0,1-1.29,4.67,8,8,0,0,1-3.75,3,15.33,15.33,0,0,1-5.91,1A19.73,19.73,0,0,1,183.18,75.22Z" transform="translate(-9.24 -10.5)"/><path class="cls-2" d="M203.9,70.93h4.39v4.39H203.9Z" transform="translate(-9.24 -10.5)"/><rect class="cls-1" x="208.39" y="34.94" width="59.77" height="29.89"/><polygon class="cls-3" points="216.12 19.99 208.39 34.94 241.48 34.94 216.12 19.99"/><polyline class="cls-3" points="264.14 19.99 268.16 34.94 228.66 34.94"/><polygon class="cls-4" points="244.11 23.94 226.83 34.94 261.39 34.94 244.11 23.94"/><polygon class="cls-5" points="229.97 22.41 216.91 34.94 243.02 34.94 229.97 22.41"/><rect x="221.09" y="41.66" width="4.48" height="16.44"/><rect x="215.11" y="47.64" width="16.44" height="4.48"/><circle cx="253.17" cy="44.65" r="2.76"/><circle cx="253.17" cy="55.11" r="2.76"/><circle cx="247.94" cy="49.88" r="2.76"/><circle cx="258.4" cy="49.88" r="2.76"/></svg>