<svg id="Layer_1" data-name="Layer 1" xmlns="http://www.w3.org/2000/svg" viewBox="0 0 199.05 65.13"><defs><style>.cls-1,.cls-2{fill:#fff;}.cls-2{opacity:0.5;}</style></defs><title>UG_Type</title><path class="cls-1" d="M13.05,39.33a8.56,8.56,0,0,1-3.58-3.8,13.43,13.43,0,0,1-1.23-6v-19h4.18V29.68a7.19,7.19,0,0,0,1.64,5,6,6,0,0,0,4.64,1.79,6.07,6.07,0,0,0,4.67-1.79,7.15,7.15,0,0,0,1.65-5V10.5H29.2v19a13.43,13.43,0,0,1-1.23,6,8.58,8.58,0,0,1-3.59,3.8,11.68,11.68,0,0,1-5.68,1.3A11.59,11.59,0,0,1,13.05,39.33Z" transform="translate(-8.24 -10.5)"/><path class="cls-1" d="M37.86,10.5h3.8l14.58,23-.49.54V10.5h4.14V40.3H56.05L41.51,17.6l.49-.54V40.3H37.86Z" transform="translate(-8.24 -10.5)"/><path class="cls-1" d="M66.91,10.5H88v4h-21Zm8.43,2.44h4.18V40.32H75.34Z" transform="translate(-8.24 -10.5)"/><path class="cls-1" d="M98.34,40.32H94.15V10.5h4.19Z" transform="translate(-8.24 -10.5)"/><path class="cls-1" d="M105.36,10.5h21v4h-21Zm8.43,2.44H118V40.32h-4.18Z" transform="translate(-8.24 -10.5)"/><path class="cls-1" d="M132.6,10.5h4.18V40.32H132.6Zm2.09,25.84h17.06v4H134.69Z" transform="translate(-8.24 -10.5)"/><path class="cls-1" d="M158.78,10.5H163V40.32h-4.18Zm2,0h17.12v4H160.81Zm0,13h14.86v4H160.81Zm0,12.82h17.12v4H160.81Z" transform="translate(-8.24 -10.5)"/><path class="cls-1" d="M186,10.5h4.18V40.32H186Zm2.83,25.84h6.75a7.16,7.16,0,0,0,5.11-1.71,6.32,6.32,0,0,0,1.82-4.83V21a6.32,6.32,0,0,0-1.82-4.83,7.16,7.16,0,0,0-5.11-1.71h-6.75v-4h6.62a13.81,13.81,0,0,1,6.13,1.25,8.74,8.74,0,0,1,3.88,3.65,11.74,11.74,0,0,1,1.33,5.79v8.45a11.73,11.73,0,0,1-1.33,5.78,8.66,8.66,0,0,1-3.89,3.65,13.89,13.89,0,0,1-6.14,1.25h-6.6Z" transform="translate(-8.24 -10.5)"/><path class="cls-2" d="M78.33,59.26v5.21A12.74,12.74,0,0,1,77,70.33a9.29,9.29,0,0,1-3.66,3.91,10.62,10.62,0,0,1-5.49,1.39,11.48,11.48,0,0,1-5.54-1.3,9.07,9.07,0,0,1-3.7-3.69,11.15,11.15,0,0,1-1.32-5.51v-8.8a12.66,12.66,0,0,1,1.29-5.84,9.37,9.37,0,0,1,3.67-3.91,10.65,10.65,0,0,1,5.48-1.39,10.32,10.32,0,0,1,4.73,1.1,10,10,0,0,1,3.62,3.11,11.7,11.7,0,0,1,2,4.65H73.55a6.37,6.37,0,0,0-1.25-2.57,5.93,5.93,0,0,0-2.07-1.64,5.6,5.6,0,0,0-2.46-.56,5.91,5.91,0,0,0-3.24.88,5.76,5.76,0,0,0-2.15,2.47,8.43,8.43,0,0,0-.76,3.7v8.8a7,7,0,0,0,.78,3.37,5.6,5.6,0,0,0,2.2,2.25,6.65,6.65,0,0,0,3.29.8,6.25,6.25,0,0,0,3.24-.83,5.57,5.57,0,0,0,2.16-2.41,8.73,8.73,0,0,0,.76-3.76V63.26H68v-4Z" transform="translate(-8.24 -10.5)"/><path class="cls-2" d="M94.09,45.5h3.57l11,29.82h-4.51L95.88,51.26,87.61,75.32H83.1ZM88.16,64.8h15.69v4H88.16Z" transform="translate(-8.24 -10.5)"/><path class="cls-2" d="M136.69,45.5h3.92V75.32h-4.08V53l.2,1.31-7.34,16.88h-2.91l-7.34-16.47.2-1.72V75.32h-4.08V45.5h3.92l8.76,19.69Z" transform="translate(-8.24 -10.5)"/><path class="cls-2" d="M150.09,45.5h4.19V75.32h-4.19Zm2,0h17.13v4H152.12Zm0,13H167v4H152.12Zm0,12.82h17.13v4H152.12Z" transform="translate(-8.24 -10.5)"/><path class="cls-2" d="M182.18,75.22a15.91,15.91,0,0,1-3.6-1.23,15.21,15.21,0,0,1-3.13-2l2.6-3.2A11.86,11.86,0,0,0,181.81,71a13.07,13.07,0,0,0,4.45.74,8.93,8.93,0,0,0,5-1.2,3.86,3.86,0,0,0,1.79-3.39v0a3.57,3.57,0,0,0-.81-2.47,4.88,4.88,0,0,0-2.1-1.36,23.93,23.93,0,0,0-3.31-.81l-.13,0-.14,0-.3-.06a31.66,31.66,0,0,1-4.87-1.16,6.88,6.88,0,0,1-3.21-2.36A7.76,7.76,0,0,1,176.86,54v0a8.72,8.72,0,0,1,1.24-4.73,7.84,7.84,0,0,1,3.62-3,15.61,15.61,0,0,1,8.87-.68,15.78,15.78,0,0,1,3.06,1,17.66,17.66,0,0,1,3,1.73l-2.38,3.32a13.63,13.63,0,0,0-3.39-1.87,9.67,9.67,0,0,0-3.39-.63,8,8,0,0,0-4.75,1.22A4,4,0,0,0,181,53.81v0a3.31,3.31,0,0,0,.87,2.42,5.21,5.21,0,0,0,2.17,1.3,33.13,33.13,0,0,0,3.62.87l.16,0,.15,0,.23,0,.22,0A23.62,23.62,0,0,1,193,59.88a7,7,0,0,1,3,2.45A7.79,7.79,0,0,1,197.21,67v0a8.23,8.23,0,0,1-1.29,4.67,8,8,0,0,1-3.75,3,15.33,15.33,0,0,1-5.91,1A19.73,19.73,0,0,1,182.18,75.22Z" transform="translate(-8.24 -10.5)"/><path class="cls-2" d="M202.9,70.93h4.39v4.39H202.9Z" transform="translate(-8.24 -10.5)"/></svg>